Control Set_states
version=1
nRows=20
nColumns=17
inDegrees=yes

# SIMM Motion File Header:
name Control Set_states
datacolumns 17
datarows 20
otherdata 1
range 0.00000000 0.10371227
endheader
time	/jointset/r_shoulder/r_shoulder_elev/value	/jointset/r_shoulder/r_shoulder_elev/speed	/jointset/r_elbow/r_elbow_flex/value	/jointset/r_elbow/r_elbow_flex/speed	/forceset/TRIlong/activation	/forceset/TRIlong/fiber_length	/forceset/TRIlat/activation	/forceset/TRIlat/fiber_length	/forceset/TRImed/activation	/forceset/TRImed/fiber_length	/forceset/BIClong/activation	/forceset/BIClong/fiber_length	/forceset/BICshort/activation	/forceset/BICshort/fiber_length	/forceset/BRA/activation	/forceset/BRA/fiber_length
      0.00000000	     -0.00000001	     -0.00000295	      0.00000003	      0.00001312	      0.04999999	      0.13617455	      0.04999999	      0.07016733	      0.04999999	      0.06525919	      0.05000009	      0.14818937	      0.04999999	      0.14730033	      0.04999999	      0.09329831
      0.00453269	     -0.00153402	     -0.66812644	      0.00670475	      2.93385729	      0.04685865	      0.13618097	      0.04685865	      0.07017280	      0.04685865	      0.06526461	      0.04685874	      0.14819457	      0.04685865	      0.14730648	      0.04685865	      0.09330160
      0.01040862	     -0.00771520	     -1.40723191	      0.03431457	      6.38605425	      0.04311110	      0.13620688	      0.04311110	      0.07019497	      0.04311110	      0.06528623	      0.04311119	      0.14821308	      0.04311110	      0.14732988	      0.04311110	      0.09331025
      0.01673912	     -0.01865121	     -2.01955555	      0.08520391	      9.62028455	      0.03944304	      0.13625237	      0.03944304	      0.07023421	      0.03944304	      0.06532390	      0.03944312	      0.14824045	      0.03944304	      0.14736756	      0.03944304	      0.09331821
      0.02306962	     -0.03298745	     -2.49120502	      0.15541289	     12.52115481	      0.03611701	      0.13631025	      0.03611701	      0.07028481	      0.03611701	      0.06537201	      0.03611708	      0.14826924	      0.03611701	      0.14741076	      0.03611701	      0.09332181
      0.02669234	     -0.04243102	     -2.71885152	      0.20363838	     14.09758243	      0.03435317	      0.13634710	      0.03435317	      0.07031751	      0.03435317	      0.06540300	      0.03435324	      0.14828490	      0.03435317	      0.14743585	      0.03435317	      0.09332134
      0.03031506	     -0.05266780	     -2.93123318	      0.25753671	     15.65913487	      0.03268309	      0.13638590	      0.03268309	      0.07035239	      0.03268309	      0.06543605	      0.03268316	      0.14829951	      0.03268309	      0.14746037	      0.03268309	      0.09331826
      0.03615168	     -0.07075451	     -3.26641456	      0.35635797	     18.21563762	      0.03017534	      0.13645157	      0.03017534	      0.07041262	      0.03017534	      0.06549319	      0.03017540	      0.14832037	      0.03017534	      0.14749766	      0.03017534	      0.09330893
      0.04198831	     -0.09080668	     -3.60626694	      0.47033811	     20.85715558	      0.02787466	      0.13652046	      0.02787466	      0.07047753	      0.02787466	      0.06555496	      0.02787472	      0.14833760	      0.02787466	      0.14753130	      0.02787466	      0.09329472
      0.04782493	     -0.11287239	     -3.95706583	      0.60001729	     23.59607577	      0.02576183	      0.13659225	      0.02576183	      0.07054712	      0.02576183	      0.06562142	      0.02576187	      0.14835103	      0.02576183	      0.14756070	      0.02576183	      0.09327567
      0.05366155	     -0.13702548	     -4.32199326	      0.74597423	     26.43519613	      0.02381970	      0.13666694	      0.02381970	      0.07062158	      0.02381970	      0.06569280	      0.02381974	      0.14836063	      0.02381970	      0.14758552	      0.02381970	      0.09325168
      0.05949818	     -0.16335533	     -4.70334901	      0.90879494	     29.37474008	      0.02203297	      0.13674464	      0.02203297	      0.07070119	      0.02203297	      0.06576936	      0.02203301	      0.14836638	      0.02203297	      0.14760554	      0.02203297	      0.09322265
      0.06533480	     -0.19196359	     -5.10306869	      1.08906399	     32.41409934	      0.02038791	      0.13682556	      0.02038791	      0.07078622	      0.02038791	      0.06585140	      0.02038795	      0.14836826	      0.02038791	      0.14762064	      0.02038791	      0.09318844
      0.07117142	     -0.22296241	     -5.52281468	      1.28736239	     35.55321770	      0.01887220	      0.13690991	      0.01887220	      0.07087698	      0.01887220	      0.06593920	      0.01887224	      0.14836517	      0.01887220	      0.14763070	      0.01887220	      0.09314897
      0.07700805	     -0.25647290	     -5.96401402	      1.50427645	     38.79315109	      0.01747474	      0.13699791	      0.01747474	      0.07097378	      0.01747474	      0.06603308	      0.01747478	      0.14835735	      0.01747474	      0.14763562	      0.01747474	      0.09310411
      0.08284467	     -0.29262378	     -6.42791502	      1.74039164	     42.13288067	      0.01618552	      0.13708981	      0.01618552	      0.07107691	      0.01618552	      0.06613334	      0.01618555	      0.14834553	      0.01618552	      0.14763471	      0.01618552	      0.09305377
      0.08806157	     -0.32728408	     -6.86356779	      1.96816695	     45.20389909	      0.01511738	      0.13717544	      0.01511738	      0.07117476	      0.01511738	      0.06622866	      0.01511741	      0.14833154	      0.01511738	      0.14762702	      0.01511738	      0.09300405
      0.09327847	     -0.36427287	     -7.32075462	      2.21217947	     48.35768107	      0.01412258	      0.13726453	      0.01412258	      0.07127814	      0.01412258	      0.06632953	      0.01412261	      0.14831430	      0.01412258	      0.14761407	      0.01412258	      0.09294980
      0.09849537	     -0.40370378	     -7.79990785	      2.47285606	     51.59215228	      0.01319572	      0.13735726	      0.01319572	      0.07138731	      0.01319572	      0.06643623	      0.01319574	      0.14829369	      0.01319572	      0.14759624	      0.01319572	      0.09289094
      0.10371227	     -0.44569178	     -8.30109971	      2.75061013	     54.90425752	      0.01233185	      0.13745379	      0.01233185	      0.07150252	      0.01233185	      0.06654898	      0.01233187	      0.14826963	      0.01233185	      0.14757359	      0.01233185	      0.09282741
